<svg width="633" height="478" viewBox="0 0 633 478" fill="none" xmlns="http://www.w3.org/2000/svg">
<g clip-path="url(#clip0_5_12)">
<path d="M28.0725 463.892C47.8031 477.748 73.3724 478.444 98.088 476.742C101.539 476.504 104.966 476.226 108.361 475.925C108.381 475.92 108.408 475.922 108.429 475.917C108.592 475.902 108.756 475.886 108.912 475.877C109.613 475.814 110.314 475.75 111.008 475.685L110.844 475.99L110.329 476.937C110.514 476.62 110.699 476.31 110.884 475.993C110.938 475.898 110.999 475.803 111.054 475.708C117.456 464.847 123.807 453.587 125.426 441.185C127.101 428.312 122.395 413.736 110.773 407.409C109.248 406.581 107.634 405.922 105.96 405.444C105.265 405.238 104.561 405.071 103.848 404.923C99.4891 403.98 94.9511 404.185 90.7005 405.518C86.45 406.851 82.6403 409.263 79.6633 412.507C76.6862 415.751 74.6493 419.709 73.7618 423.975C72.8744 428.241 73.1685 432.66 74.614 436.778C64.7602 426.929 66.5984 410.95 69.9974 397.596C73.4031 384.243 77.5259 369.383 70.5991 357.389C66.7486 350.713 59.9774 346.571 52.3783 344.902C52.1452 344.853 51.9124 344.804 51.6788 344.762C42.6248 342.974 33.2122 344.582 25.3211 349.264C10.7911 358.189 3.32835 375.112 0.90625 391.69C-2.99621 418.366 5.63999 448.138 28.0725 463.892Z" fill="#F2F2F2"/>
<path d="M34.4428 421.129C35.0156 427.014 36.4656 432.785 38.747 438.261C40.8496 443.107 43.6836 447.62 47.1551 451.649C54.2465 459.964 63.6233 466.216 73.8067 470.382C81.5933 473.491 89.7516 475.627 98.0879 476.742C101.539 476.504 104.966 476.226 108.361 475.925C108.381 475.92 108.408 475.922 108.429 475.917C108.592 475.902 108.756 475.886 108.912 475.877C109.613 475.814 110.314 475.75 111.008 475.685L110.844 475.99L110.329 476.937C110.514 476.62 110.699 476.31 110.884 475.993C110.938 475.898 110.999 475.803 111.053 475.708C104.804 469.638 100.138 462.197 97.446 454.007C94.7543 445.817 94.1155 437.118 95.5832 428.638C97.1191 420.217 100.675 412.27 105.96 405.444C105.265 405.238 104.56 405.071 103.848 404.923C101.839 407.6 100.077 410.445 98.5827 413.424C93.2196 424.05 91.5086 436.076 93.703 447.723C95.743 458.263 100.825 468.017 108.354 475.839C107.694 475.794 107.029 475.741 106.378 475.684C94.0403 474.665 81.7281 472.079 70.5381 466.783C60.9731 462.367 52.6691 455.725 46.3574 447.443C39.5803 438.332 36.594 427.372 36.081 416.234C35.537 404.309 37.1243 392.175 39.9161 380.578C42.7668 368.689 47.0991 357.185 52.8166 346.323C52.9445 346.076 52.9703 345.791 52.8887 345.527C52.8071 345.263 52.6244 345.039 52.3783 344.902C52.1732 344.767 51.9219 344.717 51.6788 344.762C51.5599 344.793 51.4496 344.849 51.3562 344.927C51.2628 345.005 51.1886 345.103 51.1393 345.212C50.4339 346.554 49.7417 347.897 49.0758 349.255C43.5301 360.565 39.4472 372.503 36.9209 384.794C34.4684 396.651 33.1594 409.055 34.4428 421.129Z" fill="white"/>
<path d="M620.306 410.545H293.983C290.618 410.541 287.391 409.236 285.011 406.917C282.631 404.597 281.293 401.451 281.289 398.171V12.3746C281.293 9.09378 282.631 5.9484 285.011 3.62851C287.391 1.30863 290.618 0.00369335 293.983 0H620.306C623.671 0.00369335 626.898 1.30863 629.278 3.62851C631.658 5.9484 632.996 9.09378 633 12.3746V398.171C632.996 401.451 631.658 404.597 629.278 406.917C626.898 409.236 623.671 410.541 620.306 410.545ZM293.983 1.45583C291.014 1.45911 288.167 2.61052 286.067 4.65747C283.967 6.70443 282.786 9.47976 282.782 12.3746V398.171C282.786 401.065 283.967 403.841 286.067 405.888C288.167 407.935 291.014 409.086 293.983 409.089H620.306C623.275 409.086 626.122 407.935 628.222 405.888C630.322 403.841 631.503 401.065 631.507 398.171V12.3746C631.503 9.47976 630.322 6.70443 628.222 4.65747C626.122 2.61052 623.275 1.45911 620.306 1.45583H293.983Z" fill="#2B2929"/>
<path d="M632.253 30.2743H282.036V31.7301H632.253V30.2743Z" fill="#2B2929"/>
<path d="M299.211 21.8375C302.51 21.8375 305.184 19.2303 305.184 16.0142C305.184 12.798 302.51 10.1908 299.211 10.1908C295.911 10.1908 293.237 12.798 293.237 16.0142C293.237 19.2303 295.911 21.8375 299.211 21.8375Z" fill="#2B2929"/>
<path d="M317.879 21.8375C321.178 21.8375 323.853 19.2303 323.853 16.0142C323.853 12.798 321.178 10.1908 317.879 10.1908C314.58 10.1908 311.905 12.798 311.905 16.0142C311.905 19.2303 314.58 21.8375 317.879 21.8375Z" fill="#2B2929"/>
<path d="M336.547 21.8375C339.846 21.8375 342.521 19.2303 342.521 16.0142C342.521 12.798 339.846 10.1908 336.547 10.1908C333.248 10.1908 330.573 12.798 330.573 16.0142C330.573 19.2303 333.248 21.8375 336.547 21.8375Z" fill="#2B2929"/>
<path d="M569.722 88.0779H336.741C334.167 88.0779 331.697 87.0809 329.877 85.3063C328.056 83.5317 327.034 81.1247 327.034 78.615C327.034 76.1053 328.056 73.6984 329.877 71.9237C331.697 70.1491 334.167 69.1521 336.741 69.1521H569.722C572.296 69.1521 574.766 70.1491 576.586 71.9237C578.407 73.6984 579.429 76.1053 579.429 78.615C579.429 81.1247 578.407 83.5317 576.586 85.3063C574.766 87.0809 572.296 88.0779 569.722 88.0779ZM336.741 70.6079C334.563 70.6079 332.473 71.4515 330.933 72.9531C329.393 74.4548 328.527 76.4914 328.527 78.615C328.527 80.7386 329.393 82.7753 330.933 84.2769C332.473 85.7785 334.563 86.6221 336.741 86.6221H569.722C571.9 86.6221 573.99 85.7785 575.53 84.2769C577.07 82.7753 577.936 80.7386 577.936 78.615C577.936 76.4914 577.07 74.4548 575.53 72.9531C573.99 71.4515 571.9 70.6079 569.722 70.6079H336.741Z" fill="#2B2929"/>
<path d="M423.915 221.287H332.067C328.701 221.283 325.474 219.978 323.095 217.658C320.715 215.338 319.376 212.193 319.372 208.912V135.393C319.376 132.112 320.715 128.966 323.095 126.646C325.474 124.327 328.701 123.022 332.067 123.018H423.915C427.28 123.022 430.507 124.327 432.887 126.646C435.267 128.966 436.606 132.112 436.609 135.393V208.912C436.606 212.193 435.267 215.338 432.887 217.658C430.507 219.978 427.28 221.283 423.915 221.287ZM332.067 124.474C329.097 124.477 326.25 125.628 324.15 127.675C322.05 129.722 320.869 132.498 320.866 135.393V208.912C320.869 211.807 322.05 214.582 324.15 216.629C326.25 218.676 329.097 219.828 332.067 219.831H423.915C426.885 219.828 429.732 218.676 431.831 216.629C433.931 214.582 435.112 211.807 435.116 208.912V135.393C435.112 132.498 433.931 129.722 431.831 127.675C429.732 125.628 426.885 124.477 423.915 124.474H332.067Z" fill="#2B2929"/>
<path d="M582.222 126.658H490.374C483.776 126.658 478.426 131.872 478.426 138.304V211.824C478.426 218.256 483.776 223.47 490.374 223.47H582.222C588.821 223.47 594.17 218.256 594.17 211.824V138.304C594.17 131.872 588.821 126.658 582.222 126.658Z" fill="#EFEFEF"/>
<path d="M423.915 358.135H332.067C328.701 358.131 325.474 356.826 323.095 354.507C320.715 352.187 319.376 349.041 319.372 345.76V272.241C319.376 268.96 320.715 265.815 323.095 263.495C325.474 261.175 328.701 259.87 332.067 259.866H423.915C427.28 259.87 430.507 261.175 432.887 263.495C435.267 265.815 436.606 268.96 436.609 272.241V345.76C436.606 349.041 435.267 352.187 432.887 354.507C430.507 356.826 427.28 358.131 423.915 358.135ZM332.067 261.322C329.097 261.325 326.25 262.477 324.15 264.524C322.05 266.571 320.869 269.346 320.866 272.241V345.76C320.869 348.655 322.05 351.431 324.15 353.478C326.25 355.525 329.097 356.676 332.067 356.679H423.915C426.885 356.676 429.732 355.525 431.831 353.478C433.931 351.431 435.112 348.655 435.116 345.76V272.241C435.112 269.346 433.931 266.571 431.831 264.524C429.732 262.477 426.885 261.325 423.915 261.322H332.067Z" fill="#2B2929"/>
<path d="M582.222 263.506H490.374C483.776 263.506 478.426 268.72 478.426 275.153V348.672C478.426 355.104 483.776 360.319 490.374 360.319H582.222C588.821 360.319 594.17 355.104 594.17 348.672V275.153C594.17 268.72 588.821 263.506 582.222 263.506Z" fill="#EFEFEF"/>
<path d="M355.135 203.506C355.118 203.506 355.101 203.505 355.085 203.505L344.638 203.128C344.312 203.118 344.001 202.994 343.762 202.778C343.523 202.562 343.372 202.269 343.337 201.954C342.618 195.7 339.659 163.832 352.055 150.586C353.809 148.674 355.979 147.166 358.405 146.172C360.832 145.179 363.455 144.724 366.084 144.842C366.191 144.848 366.298 144.826 366.393 144.778C366.488 144.73 366.567 144.657 366.623 144.568L369.152 140.694C369.29 140.484 369.486 140.316 369.717 140.209C369.949 140.102 370.206 140.06 370.461 140.089C372.488 140.328 382.824 141.455 387.17 140.228C387.426 140.155 387.699 140.156 387.954 140.233C388.21 140.31 388.436 140.458 388.606 140.659L391.927 144.616C391.984 144.687 392.058 144.745 392.142 144.783C392.227 144.821 392.319 144.839 392.412 144.835C394.101 144.802 400.024 145.121 405.207 150.772C410.82 156.892 416.613 170.7 412.334 201.724C412.289 202.042 412.127 202.334 411.879 202.546C411.631 202.758 411.313 202.876 410.983 202.877H402.755C402.428 202.875 402.113 202.76 401.866 202.552C401.619 202.343 401.456 202.056 401.408 201.741L398.72 183.662C398.698 183.514 398.62 183.379 398.5 183.284C398.381 183.189 398.229 183.142 398.075 183.151C397.921 183.16 397.777 183.225 397.67 183.334C397.563 183.442 397.502 183.586 397.499 183.736L397.314 192.224C397.308 192.475 397.229 192.72 397.086 192.93C396.943 193.14 396.741 193.306 396.505 193.408C393.572 194.665 378.074 200.561 360.944 193.177C360.712 193.075 360.514 192.913 360.371 192.708C360.229 192.503 360.147 192.264 360.136 192.016L359.799 184.304C359.792 184.154 359.728 184.011 359.618 183.905C359.508 183.799 359.361 183.737 359.207 183.732C359.052 183.727 358.901 183.778 358.784 183.877C358.667 183.975 358.593 184.113 358.575 184.263L356.487 202.328C356.448 202.651 356.289 202.95 356.04 203.167C355.791 203.384 355.469 203.504 355.135 203.506Z" fill="#2B2929"/>
<path d="M398.351 336.69H398.343L357.406 336.437C357.109 336.435 356.822 336.327 356.6 336.134C356.379 335.94 356.237 335.674 356.202 335.386L352.084 301.266C352.059 301.046 351.953 300.842 351.786 300.692C351.619 300.542 351.401 300.456 351.174 300.45C347.924 300.346 340.192 299.624 338.59 295.163C337.163 291.189 341.066 285.329 350.191 277.743C350.346 277.613 350.532 277.524 350.732 277.483C350.932 277.441 351.139 277.449 351.335 277.506C351.53 277.563 351.708 277.667 351.852 277.808C351.996 277.949 352.102 278.124 352.159 278.315L356.896 294.245C356.954 294.436 357.073 294.604 357.236 294.725C357.399 294.845 357.597 294.911 357.802 294.913L396.616 295.167C396.819 295.169 397.018 295.107 397.182 294.991C397.347 294.874 397.468 294.708 397.528 294.519L402.799 278.171C402.857 277.989 402.96 277.823 403.099 277.687C403.237 277.552 403.407 277.451 403.594 277.393C403.781 277.335 403.979 277.322 404.173 277.355C404.366 277.388 404.548 277.466 404.704 277.582C408.3 280.259 419.886 289.452 417.979 295.331C416.981 298.41 412.476 300.127 404.59 300.433C404.364 300.44 404.148 300.527 403.981 300.677C403.815 300.827 403.709 301.03 403.684 301.25L399.564 335.638C399.529 335.927 399.387 336.195 399.163 336.389C398.94 336.583 398.65 336.69 398.351 336.69Z" fill="#2B2929"/>
<path d="M143.851 257.388C156.223 257.388 166.253 247.611 166.253 235.551C166.253 223.49 156.223 213.713 143.851 213.713C131.479 213.713 121.449 223.49 121.449 235.551C121.449 247.611 131.479 257.388 143.851 257.388Z" fill="#2F2E41"/>
<path d="M145.732 257.43C155.862 257.43 164.073 249.426 164.073 239.552C164.073 229.678 155.862 221.673 145.732 221.673C135.603 221.673 127.392 229.678 127.392 239.552C127.392 249.426 135.603 257.43 145.732 257.43Z" fill="#FFB8B8"/>
<path d="M215.581 293.931C215.289 294.217 215.022 294.524 214.78 294.851L177.77 293.576L173.537 285.838L160.722 290.539L166.85 304.948C167.345 306.112 168.214 307.088 169.326 307.73C170.439 308.372 171.735 308.644 173.02 308.506L214.9 304.024C215.873 305.252 217.207 306.162 218.723 306.633C220.24 307.104 221.868 307.114 223.39 306.662C224.913 306.209 226.258 305.315 227.247 304.099C228.235 302.883 228.821 301.403 228.925 299.854C229.03 298.306 228.648 296.763 227.831 295.432C227.014 294.1 225.801 293.042 224.352 292.399C222.903 291.756 221.288 291.558 219.721 291.832C218.155 292.105 216.71 292.838 215.581 293.931H215.581Z" fill="#FFB8B8"/>
<path d="M155.792 297.496C155.32 297.29 154.9 296.987 154.559 296.608C154.219 296.229 153.966 295.783 153.818 295.3L148.664 278.435C147.544 276.099 147.421 273.426 148.32 271.002C149.219 268.578 151.068 266.6 153.461 265.502C155.854 264.405 158.595 264.277 161.085 265.147C163.574 266.017 165.608 267.813 166.741 270.143L176.726 284.872C177.011 285.292 177.2 285.768 177.279 286.266C177.359 286.763 177.327 287.272 177.187 287.757C177.047 288.242 176.801 288.692 176.466 289.076C176.131 289.46 175.716 289.769 175.247 289.982L158.787 297.475C158.319 297.688 157.809 297.801 157.292 297.805C156.775 297.808 156.263 297.703 155.792 297.496Z" fill="#2B2929"/>
<path d="M192.243 468.725L200.284 464.458L187.228 432.195L175.36 438.493L192.243 468.725Z" fill="#FFB8B8"/>
<path d="M188.764 467.254L204.598 458.852L204.599 458.851C205.924 458.148 207.379 457.706 208.879 457.551C210.379 457.396 211.896 457.53 213.344 457.946C214.791 458.362 216.14 459.052 217.313 459.977C218.487 460.901 219.462 462.042 220.183 463.334L220.362 463.653L194.436 477.411L188.764 467.254Z" fill="#2F2E41"/>
<path d="M103.765 468.76H112.919L117.275 434.338L103.763 434.339L103.765 468.76Z" fill="#FFB8B8"/>
<path d="M101.43 465.847L119.459 465.846H119.459C120.968 465.846 122.462 466.136 123.856 466.699C125.25 467.261 126.517 468.086 127.584 469.126C128.651 470.166 129.497 471.401 130.074 472.76C130.652 474.119 130.949 475.575 130.949 477.046V477.41L101.43 477.411L101.43 465.847Z" fill="#2F2E41"/>
<path d="M160.652 315.986L163.639 350.926L196.957 448.362C197.088 448.745 197.136 449.15 197.098 449.553C197.059 449.955 196.935 450.345 196.734 450.698C196.533 451.051 196.258 451.359 195.928 451.603C195.597 451.847 195.219 452.021 194.816 452.115L184.604 454.485C183.95 454.637 183.263 454.569 182.653 454.293C182.044 454.017 181.547 453.548 181.245 452.963L138.648 370.597C138.509 370.329 138.289 370.109 138.017 369.968C137.744 369.826 137.434 369.771 137.128 369.808C136.822 369.846 136.535 369.975 136.308 370.178C136.08 370.38 135.922 370.647 135.856 370.941L117.11 454.186C116.964 454.835 116.595 455.415 116.065 455.831C115.534 456.247 114.874 456.474 114.193 456.474H104.693C104.297 456.474 103.905 456.398 103.54 456.249C103.175 456.1 102.844 455.882 102.566 455.608C102.289 455.333 102.07 455.007 101.922 454.649C101.775 454.291 101.702 453.908 101.708 453.523C102.579 395.801 99.7072 330.029 122.569 319.625L126.303 310.162L160.652 315.986Z" fill="#C28C3A"/>
<path d="M125.227 312.64L121.378 289.946C120.74 286.224 121.074 282.406 122.349 278.843C123.624 275.28 125.799 272.088 128.672 269.56C131.481 267.056 134.891 265.282 138.588 264.401C142.286 263.52 146.151 263.561 149.828 264.519C150.046 264.576 150.265 264.635 150.483 264.695C155.008 265.957 159.025 268.543 161.993 272.103C164.962 275.663 166.738 280.025 167.081 284.6C167.816 294.456 167.159 308.755 159.854 320.901L159.713 321.137L125.227 312.64Z" fill="#2B2929"/>
<path d="M163.977 230.05C159.786 232.865 154.812 234.364 149.722 234.344C151.537 235.571 153.604 236.4 155.78 236.774C149.013 238.189 142.018 238.227 135.235 236.886C133.727 236.651 132.272 236.164 130.934 235.446C130.267 235.083 129.686 234.588 129.229 233.991C128.771 233.395 128.448 232.712 128.279 231.985C127.828 229.475 129.835 227.195 131.92 225.658C135.113 223.34 138.794 221.744 142.697 220.983C146.601 220.223 150.629 220.318 154.49 221.261C157.011 221.896 159.537 222.97 161.174 224.943C162.812 226.917 163.297 229.96 161.737 231.992L163.977 230.05Z" fill="#2F2E41"/>
<path d="M143.556 213.606C145.682 205.238 138.062 195.941 129.22 196.115C120.249 196.291 113.648 204.194 109.11 211.739C104.572 219.285 100.062 227.838 91.7314 231.087C88.9746 232.162 85.9873 232.553 83.0371 232.225C80.087 231.898 77.2663 230.862 74.8281 229.21C72.3898 227.559 70.4101 225.343 69.0665 222.762C67.7229 220.181 67.0573 217.315 67.1296 214.422C66.011 223.588 67.5607 233.507 73.6252 240.597C79.6898 247.687 90.9743 250.883 99.0853 246.118C103.718 243.396 106.679 238.666 109.12 233.961C111.561 229.256 113.733 224.295 117.432 220.448C121.131 216.602 126.85 214.049 131.997 215.667C134.041 216.309 135.874 217.562 137.985 217.943C140.096 218.324 142.754 217.346 143.042 215.272L143.556 213.606Z" fill="#2F2E41"/>
<path d="M99.3518 365.335C98.5906 364.465 98.0343 363.443 97.7219 362.341C97.4096 361.239 97.349 360.084 97.5442 358.957C97.7395 357.83 98.1859 356.758 98.852 355.817C99.5182 354.876 100.388 354.089 101.4 353.511L117.309 283.997L133.448 290.454L112.735 356.754C113.618 358.475 113.822 360.453 113.31 362.311C112.797 364.17 111.603 365.781 109.953 366.839C108.303 367.896 106.313 368.327 104.359 368.05C102.405 367.773 100.624 366.807 99.3519 365.335H99.3518Z" fill="#FFB8B8"/>
<path d="M111.006 293.97C110.752 293.531 110.598 293.044 110.554 292.542C110.511 292.039 110.579 291.534 110.754 291.06L116.872 274.504C117.393 271.976 118.921 269.753 121.12 268.322C123.32 266.891 126.012 266.368 128.606 266.869C131.201 267.37 133.485 268.853 134.959 270.993C136.434 273.133 136.977 275.756 136.47 278.286L135.541 295.918C135.514 296.421 135.377 296.913 135.138 297.36C134.899 297.806 134.564 298.198 134.155 298.507C133.747 298.816 133.276 299.036 132.772 299.151C132.269 299.267 131.747 299.275 131.24 299.176L113.43 295.685C112.923 295.586 112.444 295.381 112.026 295.085C111.607 294.789 111.259 294.409 111.006 293.97Z" fill="#2B2929"/>
<path d="M241.355 286.174L241.09 286.138L242.088 279.061C242.241 277.974 241.946 276.873 241.266 275.999C240.586 275.125 239.578 274.551 238.464 274.401L223.081 272.34C221.967 272.191 220.837 272.479 219.941 273.142C219.044 273.804 218.455 274.787 218.301 275.873L212.826 314.701C212.673 315.787 212.969 316.888 213.648 317.762C214.328 318.636 215.336 319.211 216.451 319.36L231.833 321.421C232.947 321.571 234.077 321.282 234.973 320.62C235.87 319.957 236.46 318.974 236.613 317.888L240.38 291.176L240.645 291.211L241.355 286.174Z" fill="#2B2929"/>
<path d="M237.98 276.478L236.065 276.221C236.123 276.443 236.125 276.676 236.069 276.899C236.013 277.122 235.902 277.328 235.746 277.5C235.589 277.671 235.391 277.802 235.17 277.881C234.95 277.96 234.712 277.986 234.479 277.954L226.073 276.828C225.84 276.797 225.618 276.71 225.428 276.576C225.237 276.441 225.083 276.263 224.98 276.057C224.876 275.851 224.826 275.623 224.834 275.394C224.842 275.164 224.908 274.94 225.026 274.742L223.237 274.502C222.844 274.449 222.444 274.473 222.06 274.571C221.676 274.669 221.316 274.839 221 275.073C220.684 275.307 220.418 275.599 220.218 275.933C220.017 276.267 219.886 276.636 219.832 277.019L214.617 314C214.563 314.383 214.587 314.773 214.688 315.147C214.788 315.521 214.963 315.873 215.203 316.181C215.443 316.489 215.742 316.748 216.085 316.943C216.427 317.139 216.806 317.266 217.199 317.319L231.942 319.295C232.736 319.401 233.541 319.196 234.179 318.724C234.818 318.252 235.238 317.552 235.347 316.778L240.562 279.797C240.671 279.023 240.46 278.238 239.976 277.616C239.492 276.993 238.774 276.584 237.98 276.478L237.98 276.478Z" fill="white"/>
<path d="M227.524 307.181C232.061 307.181 235.738 303.596 235.738 299.174C235.738 294.752 232.061 291.167 227.524 291.167C222.988 291.167 219.31 294.752 219.31 299.174C219.31 303.596 222.988 307.181 227.524 307.181Z" fill="#2B2929"/>
<path d="M226.71 302.228C226.525 302.229 226.345 302.17 226.197 302.062L226.188 302.056L224.258 300.615C224.168 300.548 224.093 300.465 224.036 300.37C223.979 300.275 223.942 300.17 223.927 300.061C223.912 299.952 223.92 299.841 223.949 299.735C223.978 299.628 224.028 299.529 224.097 299.441C224.165 299.354 224.251 299.281 224.349 299.226C224.446 299.171 224.554 299.135 224.666 299.121C224.778 299.107 224.892 299.114 225.001 299.143C225.11 299.171 225.212 299.221 225.301 299.288L226.551 300.222L229.506 296.466C229.575 296.379 229.66 296.306 229.758 296.251C229.855 296.196 229.963 296.16 230.074 296.146C230.186 296.131 230.3 296.139 230.408 296.167C230.517 296.195 230.619 296.244 230.708 296.311L230.69 296.336L230.709 296.312C230.889 296.447 231.007 296.646 231.037 296.866C231.067 297.085 231.006 297.308 230.868 297.484L227.392 301.902C227.312 302.004 227.208 302.086 227.09 302.143C226.972 302.199 226.842 302.229 226.71 302.228Z" fill="white"/>
<path d="M303.229 477.513H18.7242C18.5261 477.513 18.3362 477.437 18.1962 477.3C18.0561 477.164 17.9774 476.979 17.9774 476.786C17.9774 476.592 18.0561 476.407 18.1962 476.271C18.3362 476.134 18.5261 476.058 18.7242 476.058H303.229C303.427 476.058 303.617 476.134 303.757 476.271C303.897 476.407 303.976 476.592 303.976 476.786C303.976 476.979 303.897 477.164 303.757 477.3C303.617 477.437 303.427 477.513 303.229 477.513Z" fill="#2B2929"/>
</g>
<defs>
<clipPath id="clip0_5_12">
<rect width="633" height="477.513" fill="white"/>
</clipPath>
</defs>
</svg>
